{
    "asset" : {
        "generator" : "Khronos glTF Blender I/O v3.2.43",
        "version" : "2.0"
    },
    "scene" : 0,
    "scenes" : [
        {
            "name" : "Scene",
            "nodes" : [
                0
            ]
        }
    ],
    "nodes" : [
        {
            "mesh" : 0,
            "name" : "Cube.004",
            "scale" : [
                2.500000238418579,
                2.500000238418579,
                2.500000238418579
            ],
            "translation" : [
                0,
                0,
                -5
            ]
        }
    ],
    "materials" : [
        {
            "doubleSided" : true,
            "name" : "Plastic",
            "pbrMetallicRoughness" : {
                "baseColorFactor" : [
                    0.10000000149011612,
                    0.10000000149011612,
                    0.10000000149011612,
                    1
                ],
                "metallicFactor" : 0,
                "roughnessFactor" : 0.4000000059604645
            }
        },
        {
            "doubleSided" : true,
            "name" : "Metal",
            "pbrMetallicRoughness" : {
                "baseColorFactor" : [
                    0.800000011920929,
                    0.800000011920929,
                    0.800000011920929,
                    1
                ],
                "metallicFactor" : 0.75,
                "roughnessFactor" : 0.5
            }
        },
        {
            "alphaCutoff" : 0,
            "alphaMode" : "MASK",
            "doubleSided" : true,
            "name" : "Label",
            "pbrMetallicRoughness" : {
                "baseColorTexture" : {
                    "index" : 0
                },
                "metallicFactor" : 0,
                "roughnessFactor" : 0.4000000059604645
            }
        }
    ],
    "meshes" : [
        {
            "name" : "Cube.004",
            "primitives" : [
                {
                    "attributes" : {
                        "POSITION" : 0,
                        "NORMAL" : 1,
                        "TEXCOORD_0" : 2
                    },
                    "indices" : 3,
                    "material" : 0
                },
                {
                    "attributes" : {
                        "POSITION" : 4,
                        "NORMAL" : 5,
                        "TEXCOORD_0" : 6
                    },
                    "indices" : 7,
                    "material" : 1
                },
                {
                    "attributes" : {
                        "POSITION" : 8,
                        "NORMAL" : 9,
                        "TEXCOORD_0" : 10
                    },
                    "indices" : 11,
                    "material" : 2
                }
            ]
        }
    ],
    "textures" : [
        {
            "sampler" : 0,
            "source" : 0
        }
    ],
    "images" : [
        {
            "bufferView" : 12,
            "mimeType" : "image/png",
            "name" : "Biased Dice Warning"
        }
    ],
    "accessors" : [
        {
            "bufferView" : 0,
            "componentType" : 5126,
            "count" : 853,
            "max" : [
                0.05500001460313797,
                0.39234426617622375,
                0.11000002920627594
            ],
            "min" : [
                -0.05500001460313797,
                -4.4703494239684005e-09,
                -0.11000026017427444
            ],
            "type" : "VEC3"
        },
        {
            "bufferView" : 1,
            "componentType" : 5126,
            "count" : 853,
            "type" : "VEC3"
        },
        {
            "bufferView" : 2,
            "componentType" : 5126,
            "count" : 853,
            "type" : "VEC2"
        },
        {
            "bufferView" : 3,
            "componentType" : 5123,
            "count" : 2340,
            "type" : "SCALAR"
        },
        {
            "bufferView" : 4,
            "componentType" : 5126,
            "count" : 2896,
            "max" : [
                0.03999998793005943,
                0.3919998109340668,
                0.07599989324808121
            ],
            "min" : [
                0.03599998727440834,
                0.3879997432231903,
                -0.07600007951259613
            ],
            "type" : "VEC3"
        },
        {
            "bufferView" : 5,
            "componentType" : 5126,
            "count" : 2896,
            "type" : "VEC3"
        },
        {
            "bufferView" : 6,
            "componentType" : 5126,
            "count" : 2896,
            "type" : "VEC2"
        },
        {
            "bufferView" : 7,
            "componentType" : 5123,
            "count" : 9168,
            "type" : "SCALAR"
        },
        {
            "bufferView" : 8,
            "componentType" : 5126,
            "count" : 4,
            "max" : [
                -0.050400011241436005,
                0.23100200295448303,
                0.08999990671873093
            ],
            "min" : [
                -0.050400011241436005,
                0.0836673229932785,
                -0.09000014513731003
            ],
            "type" : "VEC3"
        },
        {
            "bufferView" : 9,
            "componentType" : 5126,
            "count" : 4,
            "type" : "VEC3"
        },
        {
            "bufferView" : 10,
            "componentType" : 5126,
            "count" : 4,
            "type" : "VEC2"
        },
        {
            "bufferView" : 11,
            "componentType" : 5123,
            "count" : 6,
            "type" : "SCALAR"
        }
    ],
    "bufferViews" : [
        {
            "buffer" : 0,
            "byteLength" : 10236,
            "byteOffset" : 0
        },
        {
            "buffer" : 0,
            "byteLength" : 10236,
            "byteOffset" : 10236
        },
        {
            "buffer" : 0,
            "byteLength" : 6824,
            "byteOffset" : 20472
        },
        {
            "buffer" : 0,
            "byteLength" : 4680,
            "byteOffset" : 27296
        },
        {
            "buffer" : 0,
            "byteLength" : 34752,
            "byteOffset" : 31976
        },
        {
            "buffer" : 0,
            "byteLength" : 34752,
            "byteOffset" : 66728
        },
        {
            "buffer" : 0,
            "byteLength" : 23168,
            "byteOffset" : 101480
        },
        {
            "buffer" : 0,
            "byteLength" : 18336,
            "byteOffset" : 124648
        },
        {
            "buffer" : 0,
            "byteLength" : 48,
            "byteOffset" : 142984
        },
        {
            "buffer" : 0,
            "byteLength" : 48,
            "byteOffset" : 143032
        },
        {
            "buffer" : 0,
            "byteLength" : 32,
            "byteOffset" : 143080
        },
        {
            "buffer" : 0,
            "byteLength" : 12,
            "byteOffset" : 143112
        },
        {
            "buffer" : 0,
            "byteLength" : 38462,
            "byteOffset" : 143124
        }
    ],
    "samplers" : [
        {
            "magFilter" : 9729,
            "minFilter" : 9987
        }
    ],
    "buffers" : [
        {
            "byteLength" : 181588,
            "uri" : "data:application/octet-stream;base64,"
        }
    ]
}
