{
    "asset" : {
        "generator" : "Khronos glTF Blender I/O v3.2.43",
        "version" : "2.0"
    },
    "scene" : 0,
    "scenes" : [
        {
            "name" : "Scene",
            "nodes" : [
                0
            ]
        }
    ],
    "nodes" : [
        {
            "mesh" : 0,
            "name" : "Cube.010",
            "scale" : [
                0.5,
                0.5,
                0.050000011920928955
            ],
            "translation" : [
                15,
                0,
                0
            ]
        }
    ],
    "materials" : [
        {
            "doubleSided" : true,
            "name" : "Wood",
            "pbrMetallicRoughness" : {
                "baseColorTexture" : {
                    "index" : 0
                },
                "metallicFactor" : 0,
                "metallicRoughnessTexture" : {
                    "index" : 1
                }
            }
        }
    ],
    "meshes" : [
        {
            "name" : "Cube.017",
            "primitives" : [
                {
                    "attributes" : {
                        "POSITION" : 0,
                        "NORMAL" : 1,
                        "TEXCOORD_0" : 2
                    },
                    "indices" : 3,
                    "material" : 0
                }
            ]
        }
    ],
    "textures" : [
        {
            "sampler" : 0,
            "source" : 0
        },
        {
            "sampler" : 0,
            "source" : 1
        }
    ],
    "images" : [
        {
            "bufferView" : 4,
            "mimeType" : "image/jpeg",
            "name" : "Wood009_1K_Color"
        },
        {
            "bufferView" : 5,
            "mimeType" : "image/png",
            "name" : "Wood009_1K_Roughness"
        }
    ],
    "accessors" : [
        {
            "bufferView" : 0,
            "componentType" : 5126,
            "count" : 4088,
            "max" : [
                1.442000150680542,
                6.40000057220459,
                2.4200003147125244
            ],
            "min" : [
                -1.442000150680542,
                0,
                -2.4200003147125244
            ],
            "type" : "VEC3"
        },
        {
            "bufferView" : 1,
            "componentType" : 5126,
            "count" : 4088,
            "type" : "VEC3"
        },
        {
            "bufferView" : 2,
            "componentType" : 5126,
            "count" : 4088,
            "type" : "VEC2"
        },
        {
            "bufferView" : 3,
            "componentType" : 5123,
            "count" : 11700,
            "type" : "SCALAR"
        }
    ],
    "bufferViews" : [
        {
            "buffer" : 0,
            "byteLength" : 49056,
            "byteOffset" : 0
        },
        {
            "buffer" : 0,
            "byteLength" : 49056,
            "byteOffset" : 49056
        },
        {
            "buffer" : 0,
            "byteLength" : 32704,
            "byteOffset" : 98112
        },
        {
            "buffer" : 0,
            "byteLength" : 23400,
            "byteOffset" : 130816
        },
        {
            "buffer" : 0,
            "byteLength" : 931074,
            "byteOffset" : 154216
        },
        {
            "buffer" : 0,
            "byteLength" : 538030,
            "byteOffset" : 1085292
        }
    ],
    "samplers" : [
        {
            "magFilter" : 9729,
            "minFilter" : 9987
        }
    ],
    "buffers" : [
        {
            "byteLength" : 1623324,
            "uri" : "data:application/octet-stream;base64,"
        }
    ]
}
