{
    "asset" : {
        "generator" : "Khronos glTF Blender I/O v3.2.43",
        "version" : "2.0"
    },
    "scene" : 0,
    "scenes" : [
        {
            "name" : "Scene",
            "nodes" : [
                0
            ]
        }
    ],
    "nodes" : [
        {
            "mesh" : 0,
            "name" : "Cylinder.007",
            "translation" : [
                -5,
                -0.054999999701976776,
                0
            ]
        }
    ],
    "materials" : [
        {
            "doubleSided" : true,
            "name" : "Gray",
            "pbrMetallicRoughness" : {
                "baseColorFactor" : [
                    0.10000000149011612,
                    0.10000000149011612,
                    0.10000000149011612,
                    1
                ],
                "metallicFactor" : 0,
                "roughnessFactor" : 0.5
            }
        },
        {
            "doubleSided" : true,
            "name" : "Red",
            "pbrMetallicRoughness" : {
                "baseColorFactor" : [
                    0.14095671474933624,
                    0.02462598867714405,
                    0.00743886549025774,
                    1
                ],
                "metallicFactor" : 0,
                "roughnessFactor" : 0.5
            }
        },
        {
            "doubleSided" : true,
            "name" : "Black",
            "pbrMetallicRoughness" : {
                "baseColorFactor" : [
                    0,
                    0,
                    0,
                    1
                ],
                "metallicFactor" : 0,
                "roughnessFactor" : 0.5
            }
        },
        {
            "doubleSided" : true,
            "name" : "Dark Gray",
            "pbrMetallicRoughness" : {
                "baseColorFactor" : [
                    0.05000000074505806,
                    0.05000000074505806,
                    0.05000000074505806,
                    1
                ],
                "metallicFactor" : 0,
                "roughnessFactor" : 0.5
            }
        },
        {
            "doubleSided" : true,
            "emissiveFactor" : [
                0.09035889804363251,
                0.266201913356781,
                1
            ],
            "name" : "Emissive",
            "pbrMetallicRoughness" : {
                "baseColorFactor" : [
                    0,
                    0,
                    0,
                    1
                ]
            }
        }
    ],
    "meshes" : [
        {
            "name" : "Cylinder.007",
            "primitives" : [
                {
                    "attributes" : {
                        "POSITION" : 0,
                        "NORMAL" : 1,
                        "TEXCOORD_0" : 2
                    },
                    "indices" : 3,
                    "material" : 0
                },
                {
                    "attributes" : {
                        "POSITION" : 4,
                        "NORMAL" : 5,
                        "TEXCOORD_0" : 6
                    },
                    "indices" : 7,
                    "material" : 1
                },
                {
                    "attributes" : {
                        "POSITION" : 8,
                        "NORMAL" : 9,
                        "TEXCOORD_0" : 10
                    },
                    "indices" : 11,
                    "material" : 2
                },
                {
                    "attributes" : {
                        "POSITION" : 12,
                        "NORMAL" : 13,
                        "TEXCOORD_0" : 14
                    },
                    "indices" : 15,
                    "material" : 3
                },
                {
                    "attributes" : {
                        "POSITION" : 16,
                        "NORMAL" : 17,
                        "TEXCOORD_0" : 18
                    },
                    "indices" : 19,
                    "material" : 4
                }
            ]
        }
    ],
    "accessors" : [
        {
            "bufferView" : 0,
            "componentType" : 5126,
            "count" : 590,
            "max" : [
                0.09839999675750732,
                0.16490352153778076,
                0.04999995231628418
            ],
            "min" : [
                -0.09839999675750732,
                0,
                -0.04999995231628418
            ],
            "type" : "VEC3"
        },
        {
            "bufferView" : 1,
            "componentType" : 5126,
            "count" : 590,
            "type" : "VEC3"
        },
        {
            "bufferView" : 2,
            "componentType" : 5126,
            "count" : 590,
            "type" : "VEC2"
        },
        {
            "bufferView" : 3,
            "componentType" : 5123,
            "count" : 2154,
            "type" : "SCALAR"
        },
        {
            "bufferView" : 4,
            "componentType" : 5126,
            "count" : 64,
            "max" : [
                0.047158755362033844,
                0.004999995231628418,
                0.047158755362033844
            ],
            "min" : [
                -0.047158755362033844,
                0.004999995231628418,
                -0.047158755362033844
            ],
            "type" : "VEC3"
        },
        {
            "bufferView" : 5,
            "componentType" : 5126,
            "count" : 64,
            "type" : "VEC3"
        },
        {
            "bufferView" : 6,
            "componentType" : 5126,
            "count" : 64,
            "type" : "VEC2"
        },
        {
            "bufferView" : 7,
            "componentType" : 5123,
            "count" : 192,
            "type" : "SCALAR"
        },
        {
            "bufferView" : 8,
            "componentType" : 5126,
            "count" : 4,
            "max" : [
                0.09600000083446503,
                0.16300000250339508,
                0.004999999888241291
            ],
            "min" : [
                -0.09600000083446503,
                0.054999999701976776,
                0.004999999888241291
            ],
            "type" : "VEC3"
        },
        {
            "bufferView" : 9,
            "componentType" : 5126,
            "count" : 4,
            "type" : "VEC3"
        },
        {
            "bufferView" : 10,
            "componentType" : 5126,
            "count" : 4,
            "type" : "VEC2"
        },
        {
            "bufferView" : 11,
            "componentType" : 5123,
            "count" : 6,
            "type" : "SCALAR"
        },
        {
            "bufferView" : 12,
            "componentType" : 5126,
            "count" : 1554,
            "max" : [
                0.09549985826015472,
                0.12885501980781555,
                0.0064999996684491634
            ],
            "min" : [
                -0.023885102942585945,
                0.050999999046325684,
                -0.024999994784593582
            ],
            "type" : "VEC3"
        },
        {
            "bufferView" : 13,
            "componentType" : 5126,
            "count" : 1554,
            "type" : "VEC3"
        },
        {
            "bufferView" : 14,
            "componentType" : 5126,
            "count" : 1554,
            "type" : "VEC2"
        },
        {
            "bufferView" : 15,
            "componentType" : 5123,
            "count" : 4686,
            "type" : "SCALAR"
        },
        {
            "bufferView" : 16,
            "componentType" : 5126,
            "count" : 32,
            "max" : [
                0.09497304260730743,
                0.053473182022571564,
                0.00624999962747097
            ],
            "min" : [
                0.09302667528390884,
                0.051526814699172974,
                0.00624999962747097
            ],
            "type" : "VEC3"
        },
        {
            "bufferView" : 17,
            "componentType" : 5126,
            "count" : 32,
            "type" : "VEC3"
        },
        {
            "bufferView" : 18,
            "componentType" : 5126,
            "count" : 32,
            "type" : "VEC2"
        },
        {
            "bufferView" : 19,
            "componentType" : 5123,
            "count" : 90,
            "type" : "SCALAR"
        }
    ],
    "bufferViews" : [
        {
            "buffer" : 0,
            "byteLength" : 7080,
            "byteOffset" : 0
        },
        {
            "buffer" : 0,
            "byteLength" : 7080,
            "byteOffset" : 7080
        },
        {
            "buffer" : 0,
            "byteLength" : 4720,
            "byteOffset" : 14160
        },
        {
            "buffer" : 0,
            "byteLength" : 4308,
            "byteOffset" : 18880
        },
        {
            "buffer" : 0,
            "byteLength" : 768,
            "byteOffset" : 23188
        },
        {
            "buffer" : 0,
            "byteLength" : 768,
            "byteOffset" : 23956
        },
        {
            "buffer" : 0,
            "byteLength" : 512,
            "byteOffset" : 24724
        },
        {
            "buffer" : 0,
            "byteLength" : 384,
            "byteOffset" : 25236
        },
        {
            "buffer" : 0,
            "byteLength" : 48,
            "byteOffset" : 25620
        },
        {
            "buffer" : 0,
            "byteLength" : 48,
            "byteOffset" : 25668
        },
        {
            "buffer" : 0,
            "byteLength" : 32,
            "byteOffset" : 25716
        },
        {
            "buffer" : 0,
            "byteLength" : 12,
            "byteOffset" : 25748
        },
        {
            "buffer" : 0,
            "byteLength" : 18648,
            "byteOffset" : 25760
        },
        {
            "buffer" : 0,
            "byteLength" : 18648,
            "byteOffset" : 44408
        },
        {
            "buffer" : 0,
            "byteLength" : 12432,
            "byteOffset" : 63056
        },
        {
            "buffer" : 0,
            "byteLength" : 9372,
            "byteOffset" : 75488
        },
        {
            "buffer" : 0,
            "byteLength" : 384,
            "byteOffset" : 84860
        },
        {
            "buffer" : 0,
            "byteLength" : 384,
            "byteOffset" : 85244
        },
        {
            "buffer" : 0,
            "byteLength" : 256,
            "byteOffset" : 85628
        },
        {
            "buffer" : 0,
            "byteLength" : 180,
            "byteOffset" : 85884
        }
    ],
    "buffers" : [
        {
            "byteLength" : 86064,
            "uri" : "data:application/octet-stream;base64,"
        }
    ]
}
