{
    "asset" : {
        "generator" : "Khronos glTF Blender I/O v3.2.43",
        "version" : "2.0"
    },
    "scene" : 0,
    "scenes" : [
        {
            "name" : "Scene",
            "nodes" : [
                0
            ]
        }
    ],
    "nodes" : [
        {
            "mesh" : 0,
            "name" : "Cylinder.001",
            "scale" : [
                0.024052435532212257,
                0.03991308435797691,
                0.024052435532212257
            ],
            "translation" : [
                5,
                0.041126687079668045,
                0
            ]
        }
    ],
    "materials" : [
        {
            "doubleSided" : true,
            "name" : "Material.001",
            "pbrMetallicRoughness" : {
                "baseColorFactor" : [
                    0.7874122262001038,
                    0.7874122262001038,
                    0.7874122262001038,
                    1
                ],
                "metallicFactor" : 0,
                "roughnessFactor" : 0.8999999761581421
            }
        }
    ],
    "meshes" : [
        {
            "name" : "Cylinder.002",
            "primitives" : [
                {
                    "attributes" : {
                        "POSITION" : 0,
                        "NORMAL" : 1,
                        "TEXCOORD_0" : 2
                    },
                    "indices" : 3,
                    "material" : 0
                }
            ]
        }
    ],
    "accessors" : [
        {
            "bufferView" : 0,
            "componentType" : 5126,
            "count" : 19083,
            "max" : [
                1.015759825706482,
                1.019755244255066,
                1.0131317377090454
            ],
            "min" : [
                -1.2759795188903809,
                -1.0174943208694458,
                -1.0131317377090454
            ],
            "type" : "VEC3"
        },
        {
            "bufferView" : 1,
            "componentType" : 5126,
            "count" : 19083,
            "type" : "VEC3"
        },
        {
            "bufferView" : 2,
            "componentType" : 5126,
            "count" : 19083,
            "type" : "VEC2"
        },
        {
            "bufferView" : 3,
            "componentType" : 5123,
            "count" : 107376,
            "type" : "SCALAR"
        }
    ],
    "bufferViews" : [
        {
            "buffer" : 0,
            "byteLength" : 228996,
            "byteOffset" : 0
        },
        {
            "buffer" : 0,
            "byteLength" : 228996,
            "byteOffset" : 228996
        },
        {
            "buffer" : 0,
            "byteLength" : 152664,
            "byteOffset" : 457992
        },
        {
            "buffer" : 0,
            "byteLength" : 214752,
            "byteOffset" : 610656
        }
    ],
    "buffers" : [
        {
            "byteLength" : 825408,
            "uri" : "data:application/octet-stream;base64,"
        }
    ]
}
