{
    "asset" : {
        "generator" : "Khronos glTF Blender I/O v3.2.43",
        "version" : "2.0"
    },
    "scene" : 0,
    "scenes" : [
        {
            "name" : "Scene",
            "nodes" : [
                0,
                1,
                2,
                3
            ]
        }
    ],
    "nodes" : [
        {
            "mesh" : 0,
            "name" : "Table Top",
            "translation" : [
                0,
                1,
                0
            ]
        },
        {
            "mesh" : 1,
            "name" : "Blank Legs"
        },
        {
            "mesh" : 2,
            "name" : "Curvy Legs"
        },
        {
            "mesh" : 3,
            "name" : "Curvy Legs.001",
            "translation" : [
                0,
                0,
                5
            ]
        }
    ],
    "meshes" : [
        {
            "name" : "Cube.001",
            "primitives" : [
                {
                    "attributes" : {
                        "POSITION" : 0,
                        "NORMAL" : 1,
                        "TEXCOORD_0" : 2
                    },
                    "indices" : 3
                }
            ]
        },
        {
            "name" : "Cube.002",
            "primitives" : [
                {
                    "attributes" : {
                        "POSITION" : 4,
                        "NORMAL" : 5,
                        "TEXCOORD_0" : 6
                    },
                    "indices" : 7
                }
            ]
        },
        {
            "name" : "Cube.003",
            "primitives" : [
                {
                    "attributes" : {
                        "POSITION" : 8,
                        "NORMAL" : 9,
                        "TEXCOORD_0" : 10
                    },
                    "indices" : 11
                }
            ]
        },
        {
            "name" : "Cube.005",
            "primitives" : [
                {
                    "attributes" : {
                        "POSITION" : 12,
                        "NORMAL" : 13,
                        "TEXCOORD_0" : 14
                    },
                    "indices" : 15
                }
            ]
        }
    ],
    "accessors" : [
        {
            "bufferView" : 0,
            "componentType" : 5126,
            "count" : 96,
            "max" : [
                0.5,
                0.029999980702996254,
                1
            ],
            "min" : [
                -0.5,
                0,
                -1
            ],
            "type" : "VEC3"
        },
        {
            "bufferView" : 1,
            "componentType" : 5126,
            "count" : 96,
            "type" : "VEC3"
        },
        {
            "bufferView" : 2,
            "componentType" : 5126,
            "count" : 96,
            "type" : "VEC2"
        },
        {
            "bufferView" : 3,
            "componentType" : 5123,
            "count" : 156,
            "type" : "SCALAR"
        },
        {
            "bufferView" : 4,
            "componentType" : 5126,
            "count" : 24,
            "max" : [
                0.45000001788139343,
                1,
                -0.8499999642372131
            ],
            "min" : [
                0.3499999940395355,
                0,
                -0.949999988079071
            ],
            "type" : "VEC3"
        },
        {
            "bufferView" : 5,
            "componentType" : 5126,
            "count" : 24,
            "type" : "VEC3"
        },
        {
            "bufferView" : 6,
            "componentType" : 5126,
            "count" : 24,
            "type" : "VEC2"
        },
        {
            "bufferView" : 7,
            "componentType" : 5123,
            "count" : 36,
            "type" : "SCALAR"
        },
        {
            "bufferView" : 8,
            "componentType" : 5126,
            "count" : 216,
            "max" : [
                0.46949541568756104,
                1.0043749809265137,
                -0.8312499523162842
            ],
            "min" : [
                0,
                0,
                -0.96875
            ],
            "type" : "VEC3"
        },
        {
            "bufferView" : 9,
            "componentType" : 5126,
            "count" : 216,
            "type" : "VEC3"
        },
        {
            "bufferView" : 10,
            "componentType" : 5126,
            "count" : 216,
            "type" : "VEC2"
        },
        {
            "bufferView" : 11,
            "componentType" : 5123,
            "count" : 528,
            "type" : "SCALAR"
        },
        {
            "bufferView" : 12,
            "componentType" : 5126,
            "count" : 928,
            "max" : [
                0.5,
                1.0299999713897705,
                1
            ],
            "min" : [
                -0.5,
                0,
                -1
            ],
            "type" : "VEC3"
        },
        {
            "bufferView" : 13,
            "componentType" : 5126,
            "count" : 928,
            "type" : "VEC3"
        },
        {
            "bufferView" : 14,
            "componentType" : 5126,
            "count" : 928,
            "type" : "VEC2"
        },
        {
            "bufferView" : 15,
            "componentType" : 5123,
            "count" : 2244,
            "type" : "SCALAR"
        }
    ],
    "bufferViews" : [
        {
            "buffer" : 0,
            "byteLength" : 1152,
            "byteOffset" : 0
        },
        {
            "buffer" : 0,
            "byteLength" : 1152,
            "byteOffset" : 1152
        },
        {
            "buffer" : 0,
            "byteLength" : 768,
            "byteOffset" : 2304
        },
        {
            "buffer" : 0,
            "byteLength" : 312,
            "byteOffset" : 3072
        },
        {
            "buffer" : 0,
            "byteLength" : 288,
            "byteOffset" : 3384
        },
        {
            "buffer" : 0,
            "byteLength" : 288,
            "byteOffset" : 3672
        },
        {
            "buffer" : 0,
            "byteLength" : 192,
            "byteOffset" : 3960
        },
        {
            "buffer" : 0,
            "byteLength" : 72,
            "byteOffset" : 4152
        },
        {
            "buffer" : 0,
            "byteLength" : 2592,
            "byteOffset" : 4224
        },
        {
            "buffer" : 0,
            "byteLength" : 2592,
            "byteOffset" : 6816
        },
        {
            "buffer" : 0,
            "byteLength" : 1728,
            "byteOffset" : 9408
        },
        {
            "buffer" : 0,
            "byteLength" : 1056,
            "byteOffset" : 11136
        },
        {
            "buffer" : 0,
            "byteLength" : 11136,
            "byteOffset" : 12192
        },
        {
            "buffer" : 0,
            "byteLength" : 11136,
            "byteOffset" : 23328
        },
        {
            "buffer" : 0,
            "byteLength" : 7424,
            "byteOffset" : 34464
        },
        {
            "buffer" : 0,
            "byteLength" : 4488,
            "byteOffset" : 41888
        }
    ],
    "buffers" : [
        {
            "byteLength" : 46376,
            "uri" : "data:application/octet-stream;base64,"
        }
    ]
}
