{
    "asset" : {
        "generator" : "Khronos glTF Blender I/O v3.2.43",
        "version" : "2.0"
    },
    "scene" : 0,
    "scenes" : [
        {
            "name" : "Scene",
            "nodes" : [
                0
            ]
        }
    ],
    "nodes" : [
        {
            "mesh" : 0,
            "name" : "Cube",
            "scale" : [
                1.5,
                1.5,
                1.5
            ]
        }
    ],
    "materials" : [
        {
            "doubleSided" : true,
            "name" : "Material",
            "pbrMetallicRoughness" : {
                "baseColorFactor" : [
                    0.10000000149011612,
                    0.10000000149011612,
                    0.10000000149011612,
                    1
                ],
                "metallicFactor" : 0,
                "roughnessFactor" : 0.4000000059604645
            }
        }
    ],
    "meshes" : [
        {
            "name" : "Cube",
            "primitives" : [
                {
                    "attributes" : {
                        "POSITION" : 0,
                        "NORMAL" : 1,
                        "TEXCOORD_0" : 2
                    },
                    "indices" : 3,
                    "material" : 0
                }
            ]
        }
    ],
    "accessors" : [
        {
            "bufferView" : 0,
            "componentType" : 5126,
            "count" : 330,
            "max" : [
                0.050000011920928955,
                0.02500005252659321,
                0.10000002384185791
            ],
            "min" : [
                -0.050000011920928955,
                -4.4703494239684005e-09,
                -0.10000002384185791
            ],
            "type" : "VEC3"
        },
        {
            "bufferView" : 1,
            "componentType" : 5126,
            "count" : 330,
            "type" : "VEC3"
        },
        {
            "bufferView" : 2,
            "componentType" : 5126,
            "count" : 330,
            "type" : "VEC2"
        },
        {
            "bufferView" : 3,
            "componentType" : 5123,
            "count" : 948,
            "type" : "SCALAR"
        }
    ],
    "bufferViews" : [
        {
            "buffer" : 0,
            "byteLength" : 3960,
            "byteOffset" : 0
        },
        {
            "buffer" : 0,
            "byteLength" : 3960,
            "byteOffset" : 3960
        },
        {
            "buffer" : 0,
            "byteLength" : 2640,
            "byteOffset" : 7920
        },
        {
            "buffer" : 0,
            "byteLength" : 1896,
            "byteOffset" : 10560
        }
    ],
    "buffers" : [
        {
            "byteLength" : 12456,
            "uri" : "data:application/octet-stream;base64,"
        }
    ]
}
