{
    "asset" : {
        "generator" : "Khronos glTF Blender I/O v3.2.43",
        "version" : "2.0"
    },
    "scene" : 0,
    "scenes" : [
        {
            "name" : "Scene",
            "nodes" : [
                0
            ]
        }
    ],
    "nodes" : [
        {
            "mesh" : 0,
            "name" : "Cube.002",
            "scale" : [
                1.3636360168457031,
                1,
                1.3636360168457031
            ],
            "translation" : [
                0,
                0,
                5
            ]
        }
    ],
    "materials" : [
        {
            "doubleSided" : true,
            "name" : "White",
            "pbrMetallicRoughness" : {
                "metallicFactor" : 0,
                "roughnessFactor" : 0.5
            }
        },
        {
            "doubleSided" : true,
            "name" : "Red",
            "pbrMetallicRoughness" : {
                "baseColorFactor" : [
                    0.8000000715255737,
                    0.03662795573472977,
                    0.008096971549093723,
                    1
                ],
                "metallicFactor" : 0,
                "roughnessFactor" : 0.5
            }
        },
        {
            "doubleSided" : true,
            "name" : "Gray",
            "pbrMetallicRoughness" : {
                "baseColorFactor" : [
                    0.5,
                    0.5,
                    0.5,
                    1
                ],
                "roughnessFactor" : 0.5
            }
        },
        {
            "doubleSided" : true,
            "name" : "Black",
            "pbrMetallicRoughness" : {
                "baseColorFactor" : [
                    0,
                    0,
                    0,
                    1
                ],
                "metallicFactor" : 0,
                "roughnessFactor" : 0.5
            }
        }
    ],
    "meshes" : [
        {
            "name" : "Cube.003",
            "primitives" : [
                {
                    "attributes" : {
                        "POSITION" : 0,
                        "NORMAL" : 1,
                        "TEXCOORD_0" : 2
                    },
                    "indices" : 3,
                    "material" : 0
                },
                {
                    "attributes" : {
                        "POSITION" : 4,
                        "NORMAL" : 5,
                        "TEXCOORD_0" : 6
                    },
                    "indices" : 7,
                    "material" : 1
                },
                {
                    "attributes" : {
                        "POSITION" : 8,
                        "NORMAL" : 9,
                        "TEXCOORD_0" : 10
                    },
                    "indices" : 11,
                    "material" : 2
                },
                {
                    "attributes" : {
                        "POSITION" : 12,
                        "NORMAL" : 13,
                        "TEXCOORD_0" : 14
                    },
                    "indices" : 15,
                    "material" : 3
                }
            ]
        }
    ],
    "accessors" : [
        {
            "bufferView" : 0,
            "componentType" : 5126,
            "count" : 1092,
            "max" : [
                0.11000002920627594,
                0.5500000715255737,
                0.11000002920627594
            ],
            "min" : [
                -0.11000002920627594,
                -0.019999992102384567,
                -0.11000002920627594
            ],
            "type" : "VEC3"
        },
        {
            "bufferView" : 1,
            "componentType" : 5126,
            "count" : 1092,
            "type" : "VEC3"
        },
        {
            "bufferView" : 2,
            "componentType" : 5126,
            "count" : 1092,
            "type" : "VEC2"
        },
        {
            "bufferView" : 3,
            "componentType" : 5123,
            "count" : 2898,
            "type" : "SCALAR"
        },
        {
            "bufferView" : 4,
            "componentType" : 5126,
            "count" : 312,
            "max" : [
                0.07442890852689743,
                0.37969210743904114,
                0.02200021967291832
            ],
            "min" : [
                0.05972724407911301,
                0.31871968507766724,
                -0.021999746561050415
            ],
            "type" : "VEC3"
        },
        {
            "bufferView" : 5,
            "componentType" : 5126,
            "count" : 312,
            "type" : "VEC3"
        },
        {
            "bufferView" : 6,
            "componentType" : 5126,
            "count" : 312,
            "type" : "VEC2"
        },
        {
            "bufferView" : 7,
            "componentType" : 5123,
            "count" : 1344,
            "type" : "SCALAR"
        },
        {
            "bufferView" : 8,
            "componentType" : 5126,
            "count" : 1384,
            "max" : [
                0.07333336770534515,
                0.466005802154541,
                0.10633303225040436
            ],
            "min" : [
                -0.07333336770534515,
                0,
                -0.10633303225040436
            ],
            "type" : "VEC3"
        },
        {
            "bufferView" : 9,
            "componentType" : 5126,
            "count" : 1384,
            "type" : "VEC3"
        },
        {
            "bufferView" : 10,
            "componentType" : 5126,
            "count" : 1384,
            "type" : "VEC2"
        },
        {
            "bufferView" : 11,
            "componentType" : 5123,
            "count" : 3768,
            "type" : "SCALAR"
        },
        {
            "bufferView" : 12,
            "componentType" : 5126,
            "count" : 4,
            "max" : [
                0.07051650434732437,
                0.46220171451568604,
                0.06416694074869156
            ],
            "min" : [
                0.06698836386203766,
                0.40446850657463074,
                -0.06416646391153336
            ],
            "type" : "VEC3"
        },
        {
            "bufferView" : 13,
            "componentType" : 5126,
            "count" : 4,
            "type" : "VEC3"
        },
        {
            "bufferView" : 14,
            "componentType" : 5126,
            "count" : 4,
            "type" : "VEC2"
        },
        {
            "bufferView" : 15,
            "componentType" : 5123,
            "count" : 6,
            "type" : "SCALAR"
        }
    ],
    "bufferViews" : [
        {
            "buffer" : 0,
            "byteLength" : 13104,
            "byteOffset" : 0
        },
        {
            "buffer" : 0,
            "byteLength" : 13104,
            "byteOffset" : 13104
        },
        {
            "buffer" : 0,
            "byteLength" : 8736,
            "byteOffset" : 26208
        },
        {
            "buffer" : 0,
            "byteLength" : 5796,
            "byteOffset" : 34944
        },
        {
            "buffer" : 0,
            "byteLength" : 3744,
            "byteOffset" : 40740
        },
        {
            "buffer" : 0,
            "byteLength" : 3744,
            "byteOffset" : 44484
        },
        {
            "buffer" : 0,
            "byteLength" : 2496,
            "byteOffset" : 48228
        },
        {
            "buffer" : 0,
            "byteLength" : 2688,
            "byteOffset" : 50724
        },
        {
            "buffer" : 0,
            "byteLength" : 16608,
            "byteOffset" : 53412
        },
        {
            "buffer" : 0,
            "byteLength" : 16608,
            "byteOffset" : 70020
        },
        {
            "buffer" : 0,
            "byteLength" : 11072,
            "byteOffset" : 86628
        },
        {
            "buffer" : 0,
            "byteLength" : 7536,
            "byteOffset" : 97700
        },
        {
            "buffer" : 0,
            "byteLength" : 48,
            "byteOffset" : 105236
        },
        {
            "buffer" : 0,
            "byteLength" : 48,
            "byteOffset" : 105284
        },
        {
            "buffer" : 0,
            "byteLength" : 32,
            "byteOffset" : 105332
        },
        {
            "buffer" : 0,
            "byteLength" : 12,
            "byteOffset" : 105364
        }
    ],
    "buffers" : [
        {
            "byteLength" : 105376,
            "uri" : "data:application/octet-stream;base64,"
        }
    ]
}
